<svg  viewBox="0 0 27 27" xmlns="http://www.w3.org/2000/svg">
<path d="M23.5125 2.25H3.4875C3.15929 2.25 2.84453 2.38038 2.61246 2.61246C2.38038 2.84453 2.25 3.15929 2.25 3.4875V23.5125C2.25 23.8407 2.38038 24.1555 2.61246 24.3875C2.84453 24.6196 3.15929 24.75 3.4875 24.75H14.265V16.0312H11.34V12.6562H14.265V10.125C14.2044 9.53073 14.2746 8.93039 14.4706 8.3661C14.6665 7.80182 14.9836 7.28724 15.3995 6.85846C15.8154 6.42969 16.3201 6.0971 16.8782 5.88402C17.4362 5.67094 18.0342 5.58253 18.63 5.625C19.5056 5.61895 20.3809 5.66403 21.2512 5.76V8.7975H19.4625C18.045 8.7975 17.775 9.4725 17.775 10.4512V12.6225H21.15L20.7112 15.9975H17.775V24.75H23.5125C23.675 24.75 23.8359 24.718 23.9861 24.6558C24.1362 24.5936 24.2726 24.5025 24.3875 24.3875C24.5025 24.2726 24.5936 24.1362 24.6558 23.9861C24.718 23.8359 24.75 23.675 24.75 23.5125V3.4875C24.75 3.32499 24.718 3.16407 24.6558 3.01393C24.5936 2.86379 24.5025 2.72737 24.3875 2.61246C24.2726 2.49754 24.1362 2.40639 23.9861 2.3442C23.8359 2.28201 23.675 2.25 23.5125 2.25Z" />
</svg>
