<svg width="15" height="16" viewBox="0 0 15 16" fill="none" xmlns="http://www.w3.org/2000/svg">
<path d="M5.78546 12.9493C2.36728 13.9747 2.36728 11.2402 1 10.8984M10.5709 15.0002V12.3545C10.5966 12.0285 10.5525 11.7008 10.4417 11.3932C10.3309 11.0855 10.1559 10.805 9.92831 10.5702C12.0749 10.331 14.3309 9.51742 14.3309 5.78476C14.3308 4.83028 13.9636 3.91241 13.3055 3.22112C13.6171 2.38606 13.5951 1.46304 13.2439 0.643805C13.2439 0.643805 12.4373 0.404532 10.5709 1.65559C9.00404 1.23093 7.35235 1.23093 5.78546 1.65559C3.91913 0.404532 3.11244 0.643805 3.11244 0.643805C2.76131 1.46304 2.73927 2.38606 3.05091 3.22112C2.38787 3.91754 2.02034 4.84371 2.02546 5.80527C2.02546 9.51059 4.28146 10.3241 6.42808 10.5907C6.20316 10.8232 6.0297 11.1003 5.91898 11.4042C5.80827 11.7081 5.76277 12.0319 5.78546 12.3545V15.0002" stroke="#343434" stroke-linecap="round" stroke-linejoin="round"/>
</svg>
