<svg  viewBox="0 0 27 27"  xmlns="http://www.w3.org/2000/svg">
<path d="M13.5003 2.52783C10.8289 2.52777 8.24465 3.47833 6.21001 5.20939C4.17538 6.94045 2.82313 9.33905 2.39526 11.976C1.96739 14.6129 2.49183 17.316 3.87471 19.6016C5.25759 21.8872 7.40868 23.6061 9.94303 24.4507C10.5055 24.5497 10.7159 24.2122 10.7159 23.9163C10.7159 23.6497 10.7024 22.7632 10.7024 21.8216C7.87528 22.3413 7.14403 21.132 6.91903 20.4997C6.66928 19.8841 6.27352 19.3386 5.7659 18.9101C5.37215 18.6997 4.80965 18.1788 5.75128 18.1653C6.11117 18.2042 6.45638 18.3293 6.75759 18.53C7.05881 18.7308 7.30715 19.0012 7.48153 19.3185C7.63535 19.5948 7.8422 19.8382 8.09022 20.0345C8.33825 20.2308 8.62257 20.3762 8.92691 20.4624C9.23124 20.5486 9.54959 20.574 9.86372 20.5369C10.1779 20.4999 10.4816 20.4012 10.7575 20.2466C10.8058 19.6743 11.061 19.1392 11.4753 18.7413C8.97215 18.4601 6.35653 17.4903 6.35653 13.1872C6.3415 12.0691 6.75397 10.9874 7.50965 10.1632C7.16644 9.19135 7.20667 8.12519 7.62215 7.18196C7.62215 7.18196 8.56378 6.88721 10.7159 8.33508C12.5567 7.82894 14.5001 7.82894 16.3409 8.33508C18.4919 6.87258 19.4346 7.18196 19.4346 7.18196C19.8501 8.12519 19.8904 9.19135 19.5471 10.1632C20.3058 10.9856 20.7188 12.0685 20.7003 13.1872C20.7003 17.5038 18.07 18.4601 15.568 18.7413C15.8362 19.0136 16.0427 19.3404 16.1735 19.6995C16.3043 20.0586 16.3564 20.4416 16.3263 20.8226C16.3263 22.3278 16.3128 23.5372 16.3128 23.9163C16.3128 24.2122 16.5231 24.5632 17.0856 24.4507C19.6153 23.599 21.76 21.876 23.1368 19.5893C24.5137 17.3026 25.033 14.601 24.6022 11.9668C24.1714 9.33258 22.8184 6.93719 20.7849 5.20823C18.7513 3.47928 16.1695 2.52928 13.5003 2.52783Z" />
</svg>
