<svg viewBox="0 0 27 27" xmlns="http://www.w3.org/2000/svg">
<path d="M19.5075 6.1425C19.2405 6.1425 18.9795 6.22168 18.7575 6.37002C18.5355 6.51836 18.3624 6.7292 18.2603 6.97588C18.1581 7.22256 18.1313 7.494 18.1834 7.75587C18.2355 8.01775 18.3641 8.25829 18.5529 8.44709C18.7417 8.6359 18.9823 8.76447 19.2441 8.81656C19.506 8.86865 19.7774 8.84192 20.0241 8.73974C20.2708 8.63756 20.4816 8.46453 20.63 8.24252C20.7783 8.02051 20.8575 7.7595 20.8575 7.4925C20.8575 7.13446 20.7153 6.79108 20.4621 6.53791C20.2089 6.28473 19.8655 6.1425 19.5075 6.1425ZM24.6825 8.865C24.6604 7.93161 24.4856 7.00813 24.165 6.13125C23.8802 5.38037 23.4349 4.70077 22.86 4.14C22.3029 3.56335 21.622 3.12095 20.8687 2.84625C19.9942 2.51568 19.0697 2.33686 18.135 2.3175C16.9425 2.25 16.56 2.25 13.5 2.25C10.44 2.25 10.0575 2.25 8.865 2.3175C7.9303 2.33686 7.00576 2.51568 6.13125 2.84625C5.37973 3.12441 4.69953 3.56634 4.14 4.14C3.56335 4.69707 3.12095 5.37799 2.84625 6.13125C2.51568 7.00576 2.33686 7.9303 2.3175 8.865C2.25 10.0575 2.25 10.44 2.25 13.5C2.25 16.56 2.25 16.9425 2.3175 18.135C2.33686 19.0697 2.51568 19.9942 2.84625 20.8687C3.12095 21.622 3.56335 22.3029 4.14 22.86C4.69953 23.4337 5.37973 23.8756 6.13125 24.1537C7.00576 24.4843 7.9303 24.6631 8.865 24.6825C10.0575 24.75 10.44 24.75 13.5 24.75C16.56 24.75 16.9425 24.75 18.135 24.6825C19.0697 24.6631 19.9942 24.4843 20.8687 24.1537C21.622 23.8791 22.3029 23.4366 22.86 22.86C23.4363 22.3004 23.8819 21.6205 24.165 20.8687C24.4856 19.9919 24.6604 19.0684 24.6825 18.135C24.6825 16.9425 24.75 16.56 24.75 13.5C24.75 10.44 24.75 10.0575 24.6825 8.865ZM22.6575 18C22.6495 18.7141 22.5202 19.4217 22.275 20.0925C22.0954 20.5821 21.8069 21.0245 21.4312 21.3863C21.0661 21.7578 20.6247 22.0457 20.1375 22.23C19.4667 22.4752 18.7591 22.6045 18.045 22.6125C16.92 22.6688 16.5038 22.68 13.545 22.68C10.5862 22.68 10.17 22.68 9.045 22.6125C8.30346 22.6271 7.56501 22.5129 6.8625 22.275C6.39696 22.0807 5.97589 21.7937 5.625 21.4312C5.2516 21.0698 4.9667 20.6271 4.7925 20.1375C4.51693 19.4573 4.36455 18.7335 4.3425 18C4.3425 16.875 4.275 16.4588 4.275 13.5C4.275 10.5412 4.275 10.125 4.3425 9C4.3466 8.26985 4.47991 7.54619 4.73625 6.8625C4.9343 6.38765 5.2383 5.96437 5.625 5.625C5.96579 5.23709 6.38846 4.92969 6.8625 4.725C7.54807 4.47691 8.27094 4.34756 9 4.3425C10.125 4.3425 10.5412 4.275 13.5 4.275C16.4588 4.275 16.875 4.275 18 4.3425C18.7141 4.35047 19.4217 4.47982 20.0925 4.725C20.6037 4.91473 21.0626 5.2232 21.4312 5.625C21.7988 5.97153 22.0867 6.39376 22.275 6.8625C22.5253 7.54749 22.6547 8.27073 22.6575 9C22.7137 10.125 22.725 10.5412 22.725 13.5C22.725 16.4588 22.7137 16.875 22.6575 18ZM13.5 7.72875C12.359 7.73097 11.2443 8.07134 10.2967 8.70685C9.34914 9.34235 8.61118 10.2445 8.17609 11.2992C7.741 12.354 7.62831 13.514 7.85227 14.6328C8.07622 15.7516 8.62677 16.7789 9.43434 17.5849C10.2419 18.3908 11.2703 18.9394 12.3895 19.1612C13.5087 19.3829 14.6685 19.268 15.7224 18.8309C16.7763 18.3937 17.677 17.654 18.3106 16.7052C18.9443 15.7563 19.2825 14.641 19.2825 13.5C19.284 12.7407 19.1354 11.9887 18.8451 11.2871C18.5549 10.5855 18.1289 9.94816 17.5915 9.41181C17.0541 8.87545 16.4159 8.45064 15.7138 8.1618C15.0116 7.87295 14.2593 7.72578 13.5 7.72875ZM13.5 17.2462C12.7591 17.2462 12.0348 17.0265 11.4187 16.6149C10.8026 16.2033 10.3225 15.6182 10.0389 14.9336C9.75537 14.2491 9.68118 13.4958 9.82573 12.7691C9.97028 12.0424 10.3271 11.3749 10.851 10.851C11.3749 10.3271 12.0424 9.97028 12.7691 9.82573C13.4958 9.68118 14.2491 9.75537 14.9336 10.0389C15.6182 10.3225 16.2033 10.8026 16.6149 11.4187C17.0265 12.0348 17.2462 12.7591 17.2462 13.5C17.2462 13.992 17.1494 14.4791 16.9611 14.9336C16.7728 15.3881 16.4969 15.8011 16.149 16.149C15.8011 16.4969 15.3881 16.7728 14.9336 16.9611C14.4791 17.1494 13.992 17.2462 13.5 17.2462Z" />
</svg>
