<svg width="17" height="16" viewBox="0 0 17 16" fill="none" xmlns="http://www.w3.org/2000/svg">
<path d="M11.3446 5.46338C12.5285 5.46338 13.6638 5.93367 14.501 6.77078C15.3381 7.6079 15.8084 8.74327 15.8084 9.92713V15.1348H12.8325V9.92713C12.8325 9.53251 12.6758 9.15405 12.3967 8.87501C12.1177 8.59598 11.7392 8.43921 11.3446 8.43921C10.95 8.43921 10.5715 8.59598 10.2925 8.87501C10.0135 9.15405 9.85669 9.53251 9.85669 9.92713V15.1348H6.88086V9.92713C6.88086 8.74327 7.35115 7.6079 8.18826 6.77078C9.02538 5.93367 10.1608 5.46338 11.3446 5.46338V5.46338Z" stroke="#343434" stroke-linecap="round" stroke-linejoin="round"/>
<path d="M3.90552 6.20801H0.929688V15.1355H3.90552V6.20801Z" stroke="#343434" stroke-linecap="round" stroke-linejoin="round"/>
<path d="M2.4176 3.97583C3.23936 3.97583 3.90552 3.30967 3.90552 2.48792C3.90552 1.66616 3.23936 1 2.4176 1C1.59585 1 0.929688 1.66616 0.929688 2.48792C0.929688 3.30967 1.59585 3.97583 2.4176 3.97583Z" stroke="#343434" stroke-linecap="round" stroke-linejoin="round"/>
</svg>
