<svg viewBox="0 0 27 27"  xmlns="http://www.w3.org/2000/svg">
<path d="M23.8817 2.25016H4.11832C3.89616 2.24718 3.67557 2.28644 3.46915 2.36568C3.26272 2.44492 3.07451 2.56259 2.91525 2.71198C2.75599 2.86137 2.62882 3.03955 2.54098 3.23634C2.45314 3.43313 2.40636 3.64468 2.40332 3.85891V23.1414C2.40636 23.3556 2.45314 23.5672 2.54098 23.764C2.62882 23.9608 2.75599 24.1389 2.91525 24.2883C3.07451 24.4377 3.26272 24.5554 3.46915 24.6346C3.67557 24.7139 3.89616 24.7531 4.11832 24.7502H23.8817C24.1038 24.7531 24.3244 24.7139 24.5308 24.6346C24.7373 24.5554 24.9255 24.4377 25.0847 24.2883C25.244 24.1389 25.3712 23.9608 25.459 23.764C25.5468 23.5672 25.5936 23.3556 25.5967 23.1414V3.85891C25.5936 3.64468 25.5468 3.43313 25.459 3.23634C25.3712 3.03955 25.244 2.86137 25.0847 2.71198C24.9255 2.56259 24.7373 2.44492 24.5308 2.36568C24.3244 2.28644 24.1038 2.24718 23.8817 2.25016ZM9.43832 21.0827H5.93832V10.9577H9.43832V21.0827ZM7.68832 9.54016C7.20563 9.54016 6.7427 9.35526 6.40139 9.02613C6.06007 8.697 5.86832 8.25061 5.86832 7.78516C5.86832 7.3197 6.06007 6.87331 6.40139 6.54418C6.7427 6.21506 7.20563 6.03016 7.68832 6.03016C7.94463 6.00213 8.20419 6.02662 8.45001 6.10203C8.69582 6.17743 8.92235 6.30206 9.11475 6.46774C9.30716 6.63342 9.4611 6.83642 9.5665 7.06345C9.67191 7.29048 9.72639 7.53642 9.72639 7.78516C9.72639 8.0339 9.67191 8.27984 9.5665 8.50686C9.4611 8.73389 9.30716 8.93689 9.11475 9.10258C8.92235 9.26826 8.69582 9.39288 8.45001 9.46829C8.20419 9.5437 7.94463 9.56819 7.68832 9.54016ZM22.0617 21.0827H18.5617V15.6489C18.5617 14.2877 18.06 13.3989 16.7883 13.3989C16.3948 13.4017 16.0115 13.5207 15.6903 13.74C15.3691 13.9592 15.1252 14.2682 14.9917 14.6252C14.9004 14.8896 14.8608 15.1681 14.875 15.4464V21.0714H11.375V10.9464H14.875V12.3752C15.1929 11.8432 15.6554 11.4049 16.2125 11.1075C16.7696 10.8102 17.4003 10.665 18.0367 10.6877C20.37 10.6877 22.0617 12.1389 22.0617 15.2552V21.0827Z" />
</svg>
