<svg xmlns="http://www.w3.org/2000/svg" xmlns:xlink="http://www.w3.org/1999/xlink" width="127" zoomAndPan="magnify" viewBox="0 0 95.25 31.5" height="42" preserveAspectRatio="xMidYMid meet" version="1.0"><defs><g/><clipPath id="ea8f1daaad"><path d="M 1.785156 4.386719 L 57.320312 4.386719 L 57.320312 30 L 1.785156 30 Z M 1.785156 4.386719 " clip-rule="nonzero"/></clipPath><clipPath id="42d320883d"><path d="M 0.378906 2.898438 L 58.695312 2.898438 L 58.695312 30.953125 L 0.378906 30.953125 Z M 0.378906 2.898438 " clip-rule="nonzero"/></clipPath></defs><g clip-path="url(#ea8f1daaad)"><path fill="#2b2b2b" d="M 1.785156 4.386719 L 57.3125 4.386719 L 57.3125 29.964844 L 1.785156 29.964844 Z M 1.785156 4.386719 " fill-opacity="1" fill-rule="nonzero"/></g><g fill="#2b2b2b" fill-opacity="1"><g transform="translate(59.606531, 21.169223)"><g><path d="M 7.5625 -8.1875 L 7.5625 0 L 6.0625 0 L 2.5 -5.15625 L 2.4375 -5.15625 L 2.4375 0 L 0.71875 0 L 0.71875 -8.1875 L 2.234375 -8.1875 L 5.765625 -3.046875 L 5.84375 -3.046875 L 5.84375 -8.1875 Z M 7.5625 -8.1875 "/></g></g></g><g fill="#2b2b2b" fill-opacity="1"><g transform="translate(68.738889, 21.169223)"><g/></g></g><g fill="#2b2b2b" fill-opacity="1"><g transform="translate(72.205763, 21.169223)"><g><path d="M 0.71875 0 L 0.71875 -8.1875 L 2.4375 -8.1875 L 2.4375 -4.578125 L 2.546875 -4.578125 L 5.5 -8.1875 L 7.578125 -8.1875 L 4.53125 -4.53125 L 7.609375 0 L 5.546875 0 L 3.296875 -3.375 L 2.4375 -2.328125 L 2.4375 0 Z M 0.71875 0 "/></g></g></g><g fill="#2b2b2b" fill-opacity="1"><g transform="translate(80.826349, 21.169223)"><g><path d="M 0.71875 0 L 0.71875 -8.1875 L 2.4375 -8.1875 L 2.4375 -4.8125 L 5.96875 -4.8125 L 5.96875 -8.1875 L 7.6875 -8.1875 L 7.6875 0 L 5.96875 0 L 5.96875 -3.390625 L 2.4375 -3.390625 L 2.4375 0 Z M 0.71875 0 "/></g></g></g><g fill="#2b2b2b" fill-opacity="1"><g transform="translate(90.082651, 21.169223)"><g><path d="M 2.4375 -8.1875 L 2.4375 0 L 0.71875 0 L 0.71875 -8.1875 Z M 2.4375 -8.1875 "/></g></g></g><g fill="#ffffff" fill-opacity="1"><g transform="translate(9.459304, 21.169223)"><g><path d="M 0.71875 0 L 0.71875 -8.1875 L 2.4375 -8.1875 L 2.4375 -4.578125 L 2.546875 -4.578125 L 5.5 -8.1875 L 7.578125 -8.1875 L 4.53125 -4.53125 L 7.609375 0 L 5.546875 0 L 3.296875 -3.375 L 2.4375 -2.328125 L 2.4375 0 Z M 0.71875 0 "/></g></g></g><g fill="#ffffff" fill-opacity="1"><g transform="translate(18.07989, 21.169223)"><g><path d="M 2.4375 -8.1875 L 2.4375 0 L 0.71875 0 L 0.71875 -8.1875 Z M 2.4375 -8.1875 "/></g></g></g><g fill="#ffffff" fill-opacity="1"><g transform="translate(22.094523, 21.169223)"><g><path d="M 0.71875 -8.1875 L 2.84375 -8.1875 L 5.109375 -2.6875 L 5.203125 -2.6875 L 7.453125 -8.1875 L 9.59375 -8.1875 L 9.59375 0 L 7.90625 0 L 7.90625 -5.328125 L 7.84375 -5.328125 L 5.71875 -0.046875 L 4.578125 -0.046875 L 2.453125 -5.359375 L 2.390625 -5.359375 L 2.390625 0 L 0.71875 0 Z M 0.71875 -8.1875 "/></g></g></g><g fill="#ffffff" fill-opacity="1"><g transform="translate(33.353935, 21.169223)"><g/></g></g><g fill="#ffffff" fill-opacity="1"><g transform="translate(36.820808, 21.169223)"><g><path d="M 0.71875 -8.1875 L 2.84375 -8.1875 L 5.109375 -2.6875 L 5.203125 -2.6875 L 7.453125 -8.1875 L 9.59375 -8.1875 L 9.59375 0 L 7.90625 0 L 7.90625 -5.328125 L 7.84375 -5.328125 L 5.71875 -0.046875 L 4.578125 -0.046875 L 2.453125 -5.359375 L 2.390625 -5.359375 L 2.390625 0 L 0.71875 0 Z M 0.71875 -8.1875 "/></g></g></g><g fill="#ffffff" fill-opacity="1"><g transform="translate(48.080222, 21.169223)"><g><path d="M 2.125 0 L 0.265625 0 L 3.09375 -8.1875 L 5.328125 -8.1875 L 8.15625 0 L 6.296875 0 L 5.6875 -1.875 L 2.734375 -1.875 Z M 3.171875 -3.21875 L 5.25 -3.21875 L 4.25 -6.328125 L 4.1875 -6.328125 Z M 3.171875 -3.21875 "/></g></g></g><g clip-path="url(#42d320883d)"><path stroke-linecap="butt" transform="matrix(0.738281, 0, 0, 0.737069, 0.377219, 2.900324)" fill="none" stroke-linejoin="miter" d="M 0.00228525 -0.00255935 L 78.991712 -0.00255935 L 78.991712 38.059946 L 0.00228525 38.059946 L 0.00228525 -0.00255935 " stroke="#2b2b2b" stroke-width="2" stroke-opacity="1" stroke-miterlimit="4"/></g></svg>