<svg  viewBox="0 0 16 16" fill="none" xmlns="http://www.w3.org/2000/svg">
<path d="M8 16C5.77778 16 3.88889 15.2222 2.33333 13.6667C0.777778 12.1111 0 10.2222 0 8C0 5.77778 0.777778 3.88889 2.33333 2.33333C3.88889 0.777778 5.77778 0 8 0C8.11852 0 8.24444 0.0037037 8.37778 0.0111111C8.51111 0.0185185 8.68148 0.0296296 8.88889 0.0444444C8.35556 0.518519 7.94074 1.1037 7.64444 1.8C7.34815 2.4963 7.2 3.22963 7.2 4C7.2 5.33333 7.66667 6.46667 8.6 7.4C9.53333 8.33333 10.6667 8.8 12 8.8C12.7704 8.8 13.5037 8.66296 14.2 8.38889C14.8963 8.11482 15.4815 7.73333 15.9556 7.24444C15.9704 7.42222 15.9815 7.56667 15.9889 7.67778C15.9963 7.78889 16 7.8963 16 8C16 10.2222 15.2222 12.1111 13.6667 13.6667C12.1111 15.2222 10.2222 16 8 16Z" />
</svg>
