<svg viewBox="0 0 26 26" xmlns="http://www.w3.org/2000/svg">
<path d="M12.1136 3.25V0H13.8864V3.25H12.1136ZM12.1136 26V22.75H13.8864V26H12.1136ZM22.75 13.8864V12.1136H26V13.8864H22.75ZM0 13.8864V12.1136H3.25V13.8864H0ZM20.7409 6.5L19.4705 5.22955L21.4205 3.27955L22.6909 4.55L20.7409 6.5ZM4.57955 22.7205L3.30909 21.45L5.25909 19.5L6.52955 20.7705L4.57955 22.7205ZM21.4205 22.7205L19.4705 20.7705L20.7409 19.5L22.6909 21.45L21.4205 22.7205ZM5.25909 6.5L3.30909 4.55L4.57955 3.27955L6.52955 5.22955L5.25909 6.5ZM12.9948 19.6477C11.1468 19.6477 9.57765 19.0009 8.2875 17.7073C6.99735 16.4137 6.35227 14.8428 6.35227 12.9948C6.35227 11.1467 6.99908 9.57765 8.2927 8.2875C9.58634 6.99735 11.1572 6.35227 13.0052 6.35227C14.8532 6.35227 16.4223 6.99909 17.7125 8.29273C19.0027 9.58635 19.6477 11.1572 19.6477 13.0052C19.6477 14.8533 19.0009 16.4223 17.7073 17.7125C16.4137 19.0027 14.8428 19.6477 12.9948 19.6477Z" />
</svg>
