<svg width="31" height="31" viewBox="0 0 31 31"  xmlns="http://www.w3.org/2000/svg">
<path d="M7.28516 21.9585L6.36808 22.8756C6.1275 23.1176 5.99247 23.445 5.99247 23.7862C5.99247 24.1274 6.1275 24.4548 6.36808 24.6968C6.61009 24.9374 6.93746 25.0724 7.2787 25.0724C7.61994 25.0724 7.94732 24.9374 8.18933 24.6968L9.10641 23.7797C9.31802 23.5326 9.4286 23.2148 9.41604 22.8897C9.40348 22.5646 9.26872 22.2563 9.03868 22.0262C8.80864 21.7962 8.50027 21.6614 8.17519 21.6489C7.85011 21.6363 7.53226 21.7469 7.28516 21.9585ZM6.4585 15.5002C6.4585 15.1576 6.32241 14.8291 6.08018 14.5868C5.83794 14.3446 5.5094 14.2085 5.16683 14.2085H3.87516C3.53259 14.2085 3.20405 14.3446 2.96182 14.5868C2.71958 14.8291 2.5835 15.1576 2.5835 15.5002C2.5835 15.8427 2.71958 16.1713 2.96182 16.4135C3.20405 16.6557 3.53259 16.7918 3.87516 16.7918H5.16683C5.5094 16.7918 5.83794 16.6557 6.08018 16.4135C6.32241 16.1713 6.4585 15.8427 6.4585 15.5002ZM15.5002 6.4585C15.8427 6.4585 16.1713 6.32241 16.4135 6.08018C16.6557 5.83794 16.7918 5.5094 16.7918 5.16683V3.87516C16.7918 3.53259 16.6557 3.20405 16.4135 2.96182C16.1713 2.71958 15.8427 2.5835 15.5002 2.5835C15.1576 2.5835 14.8291 2.71958 14.5868 2.96182C14.3446 3.20405 14.2085 3.53259 14.2085 3.87516V5.16683C14.2085 5.5094 14.3446 5.83794 14.5868 6.08018C14.8291 6.32241 15.1576 6.4585 15.5002 6.4585ZM7.28516 9.10641C7.52575 9.34504 7.85047 9.47957 8.18933 9.481C8.35932 9.48198 8.52784 9.4494 8.68521 9.38512C8.84258 9.32084 8.98572 9.22613 9.10641 9.10641C9.34699 8.8644 9.48202 8.53703 9.48202 8.19579C9.48202 7.85455 9.34699 7.52717 9.10641 7.28516L8.18933 6.36808C7.94223 6.15647 7.62438 6.0459 7.2993 6.05845C6.97422 6.07101 6.66585 6.20577 6.43581 6.43581C6.20577 6.66585 6.07101 6.97422 6.05845 7.2993C6.0459 7.62438 6.15647 7.94223 6.36808 8.18933L7.28516 9.10641ZM22.7852 9.481C23.124 9.47957 23.4487 9.34504 23.6893 9.10641L24.6064 8.18933C24.7416 8.07354 24.8514 7.93104 24.929 7.77079C25.0065 7.61054 25.0501 7.43599 25.0569 7.25811C25.0638 7.08022 25.0338 6.90283 24.9689 6.73708C24.904 6.57133 24.8055 6.42079 24.6796 6.29491C24.5537 6.16903 24.4032 6.07053 24.2374 6.00559C24.0717 5.94065 23.8943 5.91068 23.7164 5.91755C23.5385 5.92442 23.364 5.96799 23.2037 6.04552C23.0434 6.12305 22.901 6.23287 22.7852 6.36808L21.9585 7.28516C21.7179 7.52717 21.5829 7.85455 21.5829 8.19579C21.5829 8.53703 21.7179 8.8644 21.9585 9.10641C22.1862 9.33292 22.4901 9.46647 22.811 9.481H22.7852ZM27.1252 14.2085H25.8335C25.4909 14.2085 25.1624 14.3446 24.9201 14.5868C24.6779 14.8291 24.5418 15.1576 24.5418 15.5002C24.5418 15.8427 24.6779 16.1713 24.9201 16.4135C25.1624 16.6557 25.4909 16.7918 25.8335 16.7918H27.1252C27.4677 16.7918 27.7963 16.6557 28.0385 16.4135C28.2807 16.1713 28.4168 15.8427 28.4168 15.5002C28.4168 15.1576 28.2807 14.8291 28.0385 14.5868C27.7963 14.3446 27.4677 14.2085 27.1252 14.2085ZM15.5002 24.5418C15.1576 24.5418 14.8291 24.6779 14.5868 24.9201C14.3446 25.1624 14.2085 25.4909 14.2085 25.8335V27.1252C14.2085 27.4677 14.3446 27.7963 14.5868 28.0385C14.8291 28.2807 15.1576 28.4168 15.5002 28.4168C15.8427 28.4168 16.1713 28.2807 16.4135 28.0385C16.6557 27.7963 16.7918 27.4677 16.7918 27.1252V25.8335C16.7918 25.4909 16.6557 25.1624 16.4135 24.9201C16.1713 24.6779 15.8427 24.5418 15.5002 24.5418ZM23.7152 21.9585C23.4698 21.822 23.1866 21.7692 22.9085 21.8081C22.6304 21.8469 22.3725 21.9754 22.1739 22.1739C21.9754 22.3725 21.8469 22.6304 21.8081 22.9085C21.7692 23.1866 21.822 23.4698 21.9585 23.7152L22.8756 24.6322C23.1176 24.8728 23.445 25.0079 23.7862 25.0079C24.1274 25.0079 24.4548 24.8728 24.6968 24.6322C24.9374 24.3902 25.0724 24.0629 25.0724 23.7216C25.0724 23.3804 24.9374 23.053 24.6968 22.811L23.7152 21.9585ZM15.5002 8.396C14.0951 8.396 12.7216 8.81265 11.5533 9.59326C10.385 10.3739 9.47447 11.4834 8.93677 12.7815C8.39907 14.0796 8.25838 15.508 8.5325 16.8861C8.80662 18.2642 9.48322 19.53 10.4768 20.5236C11.4703 21.5171 12.7361 22.1937 14.1142 22.4678C15.4923 22.7419 16.9207 22.6013 18.2188 22.0636C19.5169 21.5259 20.6264 20.6153 21.4071 19.447C22.1877 18.2788 22.6043 16.9052 22.6043 15.5002C22.6009 13.6171 21.8513 11.8121 20.5198 10.4805C19.1882 9.14898 17.3833 8.39941 15.5002 8.396ZM15.5002 20.021C14.606 20.021 13.732 19.7559 12.9885 19.2591C12.2451 18.7623 11.6656 18.0563 11.3235 17.2302C10.9813 16.4041 10.8918 15.4951 11.0662 14.6182C11.2406 13.7412 11.6712 12.9357 12.3035 12.3035C12.9357 11.6712 13.7412 11.2406 14.6182 11.0662C15.4951 10.8918 16.4041 10.9813 17.2302 11.3235C18.0563 11.6656 18.7623 12.2451 19.2591 12.9885C19.7559 13.732 20.021 14.606 20.021 15.5002C20.021 16.6992 19.5447 17.8491 18.6969 18.6969C17.8491 19.5447 16.6992 20.021 15.5002 20.021Z"/>
</svg>
